<?xml version="1.0" standalone="no"?><!DOCTYPE svg PUBLIC "-//W3C//DTD SVG 1.1//EN" "http://www.w3.org/Graphics/SVG/1.1/DTD/svg11.dtd"><svg t="1615348516072" class="icon" viewBox="0 0 1422 1024" version="1.1" xmlns="http://www.w3.org/2000/svg" p-id="5356" xmlns:xlink="http://www.w3.org/1999/xlink" width="277.734375" height="200"><defs><style type="text/css"></style></defs><path d="M597.32992 347.59168s-118.3232 210.4832-354.97984 630.90176h608.14336l77.93152-550.68672c15.93344-44.37504-29.58336-83.62496-137.66656-117.76-171.2384-55.18336-193.42336 37.54496-193.42336 37.54496z" fill="#F5FBFF" p-id="5357"></path><path d="M1105.92 914.77504h68.26496v-9.10336H1105.92v9.10336zM184.88832 973.93664h68.26496v-9.10336H184.88832v9.10336z" fill="#F0F7FF" p-id="5358"></path><path d="M1105.92 914.2016h9.09824v-50.06336H1105.92v50.06336zM184.88832 973.36832h9.09824v-50.06336h-9.09824v50.06336z" fill="#D3DFEE" p-id="5359"></path><path d="M646.82496 952.32c-0.02048 10.368 32.06144 18.77504 71.64928 18.78016 39.58784 0.00512 71.70048-8.3968 71.71072-18.7648V952.32c0.02048-10.368-32.0512-18.77504-71.64928-18.78016-39.58784-0.00512-71.69024 8.3968-71.71072 18.7648V952.32z" fill="#CFDBEA" p-id="5360"></path><path d="M0 938.66496c13.08672-182.60992 77.36832-259.97824 191.71328-232.67328 23.89504-71.11168 54.61504-223.00672 133.12-223.00672 78.51008 0 173.51168 203.09504 235.52 188.30336 62.01344-14.79168 90.45504-181.4784 197.97504-124.59008 71.68 37.55008 110.92992 59.73504 117.76 65.99168 37.54496-63.71328 79.64672-86.47168 125.1584-68.83328 52.33152 22.19008 79.07328 88.75008 95.57504 122.30656 16.49152 33.56672 44.93824 112.0768 96.70656 89.32352 51.76832-22.76352 110.92992-39.25504 145.06496 35.84 22.7584 50.05824 30.72 96.70656 24.46848 141.0816-185.46176-69.97504-418.70848-100.1216-700.8768-91.59168C379.44832 849.92 158.72 882.91328 0 938.66496" fill="#E4EBF4" p-id="5361"></path><path d="M1110.47168 826.02496c15.36 0 28.44672 12.51328 28.44672 27.87328S1126.4 881.78176 1111.04 881.78176c-15.36 0-27.87328-12.52352-27.87328-27.88352-0.56832-15.36 11.94496-27.87328 27.30496-27.87328m-919.3216 17.63328c22.75328 0 41.5232 18.77504 41.5232 41.53344S213.90848 926.72 191.15008 926.72c-22.75328 0-41.52832-18.77504-41.52832-41.52832 0-23.32672 18.20672-41.53344 41.53344-41.53344" fill="#B4CAE6" p-id="5362"></path><path d="M703.71328 940.37504l2.84672 13.08672s2.8416 6.25152-6.82496 5.6832h-41.53344s-2.27328-9.09824 11.94496-9.67168c0 0 15.36 0.57344 16.50176-11.94496l17.06496 2.84672z m65.9968-1.14176l7.38816 13.65504s3.98336 6.25664-3.97824 6.25664h-31.86176s-5.12-1.70496-1.13664-6.25664l13.65504-14.78656 15.92832 1.13152z" fill="#3B3E5C" p-id="5363"></path><path d="M710.53824 797.01504c9.6768 19.91168 18.77504 40.39168 22.7584 62.00832 1.70496 11.37664 2.2784 22.7584 4.5568 33.5616 3.4048 15.92832 10.8032 30.72 13.0816 47.22176 12.51328 4.54656 23.88992 0.56832 23.88992 0.56832-6.25664-17.63328-6.82496-36.40832-10.81344-54.61504-1.1264-6.26176-2.83648-11.94496-3.97824-17.63328-8.53504-38.68672-6.25664-83.62496-19.33824-121.17504l-4.55168-3.40992-59.73504 1.70496c-0.5632-0.57344-1.14176 0-1.14176 0.56832-1.70496 14.21824-1.13664 29.00992-1.13664 43.23328 0.56832 51.2 1.13664 102.97344 11.37664 153.6 7.96672 0.57344 19.3536-1.13664 19.3536-1.13664 6.2464-31.85664-3.9936-64.84992-2.28352-97.28 0.56832-15.93344 4.5568-31.85664 7.9616-47.21664" fill="#505579" p-id="5364"></path><path d="M674.70336 750.36672c2.84672 3.97824 6.82496 5.6832 11.37664 7.39328 4.55168 1.70496 9.67168 2.2784 14.22336 2.84672 2.8416 0.5632 5.12 1.13664 7.3984 2.84672 2.8416 1.70496 4.54656 5.12 5.6832 7.9616 1.14176 3.40992 1.71008 6.25664 3.41504 9.67168a23.4496 23.4496 0 0 0 10.8032 11.37664c2.85184 1.71008 6.26176 2.2784 9.10848 4.55168 5.6832 3.98336 7.96672 11.94496 9.10336 18.76992 1.70496 6.83008 3.98336 14.79168 9.67168 18.20672l-2.84672-24.45824s-4.5568-43.2384-10.24-68.27008l-67.12832 3.41504-0.56832 5.6832z" fill="#474B6B" p-id="5365"></path><path d="M703.14496 880.07168c-2.84672-7.96672-5.68832-16.49664-5.68832-25.6 0-4.5568 0.56832-8.52992 1.13664-13.08672 0-4.54656 0-9.09824-0.56832-13.64992-0.5632-3.98336-1.70496-7.9616-1.70496-12.51328 0-3.98336 1.70496-7.96672 2.84672-12.5184 1.70496-10.80832-2.84672-22.7584 0.56832-33.5616 2.84672 8.52992 7.39328 19.33824 10.8032 27.30496l-2.27328 9.67168s-6.25664 27.87328-5.68832 43.23328l0.56832 30.72z" fill="#474B6B" p-id="5366"></path><path d="M636.59008 654.21824s-9.10848-3.97824-14.22848 6.83008l17.6384 11.94496-3.40992-18.77504z" fill="#30355D" p-id="5367"></path><path d="M628.00384 664.73472c-2.27328-3.41504-4.5568-6.82496-7.96672-8.53504a17.01376 17.01376 0 0 0-4.54656-2.27328c-1.71008-1.13664-2.84672-2.2784-3.41504-3.98336-0.56832-1.70496-0.56832-3.41504-1.13664-5.12-0.56832-1.13664-1.71008-2.27328-1.71008-3.41504v-0.5632c0.5632-0.5632 1.71008-0.5632 2.2784 0 1.70496 1.13664 2.27328 2.27328 3.98336 3.97824 1.13664 1.13664 2.27328 1.70496 3.40992 2.2784 1.13664 0.56832 2.2784 1.13664 3.41504 1.13664 0.5632 0 0.5632 0 1.13664-0.5632 0.5632-0.57344 0.5632-1.14688 0.5632-1.7152 0-0.5632-0.5632-1.13664-0.5632-1.70496-0.56832-1.13664-0.56832-2.27328-0.56832-3.41504v-0.5632h0.5632c1.14176 0 2.28352 1.13152 3.42016 2.27328 1.70496 2.27328 3.98336 3.97824 5.6832 6.25664 0.57344 0.56832 1.14176 1.13664 1.14176 1.71008 0.5632 1.13152 0.5632 2.27328 0.5632 3.97824 0 2.27328 0 5.12 1.7152 6.82496 0 0-3.41504 5.12-3.98336 5.12-0.56832 0-3.98336-1.70496-3.98336-1.70496" fill="#F3AF9E" p-id="5368"></path><path d="M783.92832 654.21824s9.09824-3.97824 14.21824 6.83008l-17.63328 11.94496 3.41504-18.77504z" fill="#30355D" p-id="5369"></path><path d="M793.03168 665.03168c2.27328-3.40992 4.55168-6.82496 7.96672-8.52992 1.70496-1.14176 2.8416-1.71008 4.54656-2.2784 1.71008-1.13664 2.84672-2.2784 3.41504-3.98336 0.57344-1.70496 0.57344-3.41504 1.14176-5.12 0.5632-1.13664 1.70496-2.27328 1.70496-3.41504v-0.56832a1.7408 1.7408 0 0 0-2.27328 0c-1.71008 1.14176-2.2784 2.2784-3.9936 3.98336-1.1264 1.14176-2.26816 1.70496-3.4048 2.2784-1.13664 0.5632-2.27328 1.13664-3.41504 1.13664-0.56832 0-0.56832 0-1.13664-0.56832s-0.56832-1.14176-0.56832-1.70496c0-0.56832 0.57344-1.14176 0.57344-1.71008 0.5632-1.13664 0.5632-2.27328 0.5632-3.40992 0-0.56832-0.56832-0.56832-0.56832-0.56832-1.13664 0-2.2784 1.1264-3.40992 2.27328-1.71008 2.27328-3.9936 3.97824-5.69344 6.25664-0.56832 0.5632-1.13664 1.13664-1.13664 1.71008-0.56832 1.1264-0.56832 2.27328-0.56832 3.97824 0 2.27328 0 5.12-1.71008 6.83008 0 0 3.41504 5.12 3.98848 5.12 0.5632 0 3.97824-1.71008 3.97824-1.71008" fill="#F3AF9E" p-id="5370"></path><path d="M721.92 634.88l-2.27328-0.56832h-7.3984c-27.87328 1.13664-35.84 13.65504-35.84 13.65504l-19.91168 32.42496-19.91168-26.17344c-2.27328 14.7968-14.21824 6.83008-14.21824 6.83008l22.18496 38.68672c5.68832 11.94496 18.2016 3.97824 18.2016 3.97824l15.36-10.24-2.27328 42.66496c-2.84672 6.26176-3.98336 8.53504-3.98336 8.53504 14.22336 9.10848 44.37504 8.53504 59.73504 5.69344 1.13664 0 2.27328-0.57344 3.41504-1.14176 1.70496-0.56832 3.41504-1.70496 5.12-2.27328 1.70496-1.13664 2.8416-3.40992 1.70496-5.12a19.072 19.072 0 0 1-1.70496-4.55168l-1.14176-7.39328c-0.56832-15.36 1.71008-31.86176 2.84672-42.10176l15.92832 15.92832s9.09824 11.38176 18.20672-3.97824l22.18496-38.68672s-11.94496 7.96672-14.22336-6.83008l-19.90656 26.17344-13.65504-25.03168c0.56832 0.56832-7.96672-17.06496-28.44672-20.48" fill="#3484FE" p-id="5371"></path><path d="M695.75168 613.25824c-3.40992-3.97824-5.12-9.09824-5.12-14.21824 0-1.70496 0.5632-3.98336 1.14176-5.12 1.1264-1.70496 2.8416-2.84672 5.12-2.84672 1.70496-0.5632 3.97824-0.5632 6.2464-0.5632 3.42016 0 7.40352 0 10.81856 0.5632 1.13664 0 2.8416 0 3.98336 0.56832 2.8416 0.57344 4.55168 2.84672 5.12 5.69344 0 0.5632 0 1.70496 0.5632 2.27328 1.14176 1.13664 2.84672 0.56832 4.55168 1.13664 1.71008 0.56832 2.2784 3.41504 1.71008 5.12-0.56832 4.54656-1.70496 9.66656-2.84672 14.22336-0.56832 1.13664-0.56832 2.84672-1.70496 3.97824-0.56832 1.14176-1.71008 2.2784-3.41504 2.2784l-26.16832-13.08672z" fill="#1C0F44" p-id="5372"></path><path d="M722.48832 618.95168s-0.5632 11.95008 2.27328 17.63328c0 0-11.37664 10.24-18.2016 0 0 0 1.70496-6.25152 0-9.66656l15.92832-7.96672z" fill="#E5837D" p-id="5373"></path><path d="M695.17824 603.59168c-1.13664 2.84672-0.5632 5.6832 0 9.67168 0.56832 2.2784 0.56832 3.98336 1.14176 6.25664 0.56832 1.70496 0.56832 3.41504 1.13664 5.12 0.56832 3.41504 2.8416 7.3984 5.68832 9.10336 0.56832 0.5632 1.13664 0.5632 1.71008 0.5632H706.56c3.41504-1.13152 6.82496-2.26816 9.66656-4.54656 2.84672-2.27328 5.12-5.12 6.26176-8.53504 0.56832 0 1.13664 0 1.13664-0.56832 0.56832-0.5632 0.56832-1.13664 0.56832-1.70496 0-1.70496 0.56832-3.40992 0-5.12 0-0.56832 0-1.13664-0.5632-1.13664-0.57344-1.13664-1.71008-1.13664-2.85184-0.56832a4.41856 4.41856 0 0 0-2.27328 2.27328c-1.70496-3.41504-2.2784-6.82496-1.70496-10.24 0.56832-0.56832-10.81344 2.2784-21.62176-0.56832" fill="#F3AF9E" p-id="5374"></path><path d="M733.86496 674.69824l9.10336 13.08672s-6.25664 30.14656-3.41504 45.50656c0 0-1.13152-7.39328-3.41504-13.07648 0 0-3.97824-11.95008-0.5632-18.77504-0.56832 0.56832 6.25664-7.96672-1.71008-26.74176" fill="#2969CB" p-id="5375"></path><path d="M817.49504 153.03168c84.19328 19.34336 159.28832 50.06336 215.60832 84.76672-3.41504-74.52672-75.09504-146.77504-176.3584-172.37504l7.96672-26.73664c7.39328 0.5632 14.78656-4.5568 17.07008-11.95008 2.83648-9.09824-2.28352-18.76992-11.38176-21.04832-9.09824-2.8416-18.77504 2.2784-21.04832 11.38176-2.2784 7.39328 1.13664 15.36 7.39328 19.34336l-8.52992 27.30496c-100.12672-22.18496-194.56 7.39328-233.81504 68.83328 60.30336-2.27328 130.27328 3.98336 203.09504 20.48" fill="#B4CAE6" p-id="5376"></path><path d="M1063.25504 411.87328c-6.83008 7.39328-25.6 0.56832-42.10176-15.36-16.49152-15.9232-23.89504-34.13504-17.06496-41.5232 6.82496-7.40352 25.6-0.57344 42.09664 15.36 16.50176 15.36 23.89504 34.12992 17.07008 41.5232m-122.88-134.82496c-3.98336 9.09824-23.89504 9.09824-44.94336 0-20.48-9.10336-34.12992-23.89504-30.15168-33.56672 3.97824-9.67168 23.89504-9.10336 44.93824 0 21.05344 9.6768 34.13504 24.46336 30.1568 33.56672m-10.24 147.33824c-9.10336 40.3968-91.59168 55.7568-183.18336 34.70336-91.59168-21.0432-158.72-71.11168-149.61664-111.50336C606.43328 307.2 688.92672 291.84 780.51328 312.88832c92.16 21.04832 158.72 71.1168 149.62176 111.49824m-381.1584-162.12992c-21.61664 5.68832-41.52832 2.8416-44.36992-6.83008-2.84672-9.66656 13.0816-22.18496 34.70336-28.4416 21.61664-5.6832 41.5232-2.84672 44.36992 6.82496 2.84672 9.6768-13.08672 22.7584-34.70336 28.44672M747.52 219.58656c-1.14176 10.24-19.91168 16.50176-42.66496 14.7968-22.7584-1.71008-39.82336-11.95008-39.25504-21.62176 1.13664-10.24 19.91168-16.49664 42.66496-14.78656 22.75328 1.70496 39.82336 11.37152 39.25504 21.61152m285.57824 18.77504c-56.8832-35.26656-131.40992-65.42336-215.6032-84.7616-72.82176-17.07008-142.79168-23.32672-203.09504-20.48-105.80992 4.54656-182.60992 38.11328-195.69664 92.72832-19.91168 86.4768 126.28992 193.9968 326.54336 240.0768 200.2432 46.08 378.88 13.6448 398.78656-72.82688 11.38176-49.48992-32.42496-106.94656-110.93504-154.73664" fill="#D3DFEE" p-id="5377"></path></svg>