<?xml version="1.0" standalone="no"?><!DOCTYPE svg PUBLIC "-//W3C//DTD SVG 1.1//EN" "http://www.w3.org/Graphics/SVG/1.1/DTD/svg11.dtd"><svg t="1615605906033"  viewBox="0 0 1024 1024" version="1.1" xmlns="http://www.w3.org/2000/svg" p-id="3502" xmlns:xlink="http://www.w3.org/1999/xlink" width="200" height="200"><path d="M512 512m-480 0a480 480 0 1 0 960 0 480 480 0 1 0-960 0Z" fill="#5CA2EE" p-id="3503"></path><path d="M256 582.656s80.128 29.12 128.64 83.52L475.52 768s36.48-79.168 133.184-185.344C705.28 476.416 768 447.744 768 447.744s-7.68-44.16-8.832-81.472c-1.792-59.008 0.96-110.272 0.96-110.272s-76.608 14.528-174.976 162.688-117.568 211.584-117.568 211.584L397.056 484.8 256 582.72z" fill="#FFFFFF" p-id="3504"></path></svg>