<?xml version="1.0" standalone="no"?><!DOCTYPE svg PUBLIC "-//W3C//DTD SVG 1.1//EN" "http://www.w3.org/Graphics/SVG/1.1/DTD/svg11.dtd"><svg t="1615607001224" class="icon" viewBox="0 0 1059 1024" version="1.1" xmlns="http://www.w3.org/2000/svg" p-id="8127" xmlns:xlink="http://www.w3.org/1999/xlink" width="206.8359375" height="200"><path d="M516.447475 100c55.625 0 109.625 10.875 160.375 32.375 49 20.75 93.125 50.5 131 88.375s67.625 82 88.375 131c21.5 50.75 32.375 104.625 32.375 160.375 0 55.625-10.875 109.625-32.375 160.375-20.75 49-50.5 93.125-88.375 131s-82 67.625-131 88.375c-50.75 21.5-104.625 32.375-160.375 32.375-55.625 0-109.625-10.875-160.375-32.375-49-20.75-93.125-50.5-131-88.375S157.447475 721.5 136.697475 672.5c-21.5-50.75-32.375-104.625-32.375-160.375 0-55.625 10.875-109.625 32.375-160.375 20.75-49 50.5-93.125 88.375-131s82-67.625 131-88.375c50.75-21.5 104.625-32.375 160.375-32.375m0-100c-282.75 0-512 229.25-512 512S233.697475 1024 516.447475 1024 1028.447475 794.75 1028.447475 512 799.197475 0 516.447475 0z" fill="#ABABAB" p-id="8128"></path></svg>